<svg xmlns="http://www.w3.org/2000/svg" width="1920" height="1080" viewBox="0 0 1920 1080">
  <defs>
    <linearGradient id="g" x1="0%" y1="0%" x2="100%" y2="100%">
      <stop offset="0%" stop-color="#0c2340"/>
      <stop offset="55%" stop-color="#123a63"/>
      <stop offset="100%" stop-color="#1a5276"/>
    </linearGradient>
    <pattern id="dots" width="28" height="28" patternUnits="userSpaceOnUse">
      <circle cx="2" cy="2" r="1.2" fill="#ffffff" opacity="0.07"/>
    </pattern>
  </defs>
  <rect width="1920" height="1080" fill="url(#g)"/>
  <rect width="1920" height="1080" fill="url(#dots)"/>
  <!-- Sınıf tahtası silueti -->
  <g opacity="0.07" fill="none" stroke="#ffffff" stroke-width="4">
    <rect x="1280" y="180" width="420" height="260" rx="8"/>
    <line x1="1310" y1="230" x2="1670" y2="230"/>
    <line x1="1310" y1="280" x2="1620" y2="280"/>
    <line x1="1310" y1="330" x2="1650" y2="330"/>
    <text x="1340" y="270" fill="#ffffff" stroke="none" font-size="28" opacity="0.6" font-family="serif">E=mc²</text>
  </g>
  <!-- Defter silueti -->
  <g opacity="0.06" fill="none" stroke="#ffffff" stroke-width="3">
    <rect x="180" y="620" width="200" height="260" rx="6"/>
    <line x1="180" y1="660" x2="380" y2="660"/>
    <line x1="210" y1="700" x2="350" y2="700"/>
    <line x1="210" y1="740" x2="330" y2="740"/>
    <line x1="210" y1="780" x2="360" y2="780"/>
  </g>
  <!-- Kalem silueti -->
  <g opacity="0.08" fill="#ffffff">
    <path d="M340 200 L420 120 L440 140 L360 220 Z"/>
    <path d="M420 120 L430 110 L450 130 L440 140 Z"/>
    <path d="M340 200 L330 215 L345 210 Z"/>
  </g>
  <!-- Tebeşir -->
  <g opacity="0.1" fill="#ffffff">
    <rect x="1580" y="720" width="18" height="70" rx="4" transform="rotate(25 1589 755)"/>
    <rect x="1620" y="760" width="14" height="55" rx="3" transform="rotate(-15 1627 787)"/>
  </g>
  <ellipse cx="1600" cy="180" rx="420" ry="260" fill="#ffffff" opacity="0.03"/>
  <ellipse cx="260" cy="900" rx="520" ry="300" fill="#ffffff" opacity="0.025"/>
</svg>
